Walter White, a struggling high school chemistry teacher is diagnosed with advanced lung cancer.
He turns to a life of crime, producing and selling methamphetamine accompanied by a former student, Jesse Pinkman with the aim of securing his family\'s financial future before he dies.

Format                           : Matroska
File size                        : 399 MiB
Duration                         : 45mn 45s
Overall bit rate                 : 1 220 Kbps
Encoded date                     : UTC 2011-10-03 13:13:59
Writing application              : mkvmerge v5.0.0 (\'Die Wahre Liebe\') built on Sep 25 2011 20:33:49
Writing library                  : libebml v1.2.2 + libmatroska v1.3.0

Video
ID                               : 1
Format                           : AVC
Format/Info                      : Advanced Video Codec
Format profile                   : Main@L3.0
Format settings, CABAC           : Yes
Format settings, ReFrames        : 4 frames
Muxing mode                      : Container profile=Unknown@3.0
Codec ID                         : V_MPEG4/ISO/AVC
Duration                         : 45mn 42s
Bit rate                         : 812 Kbps
Nominal bit rate                 : 835 Kbps
Width                            : 624 pixels
Height                           : 352 pixels
Display aspect ratio             : 16:9
Frame rate mode                  : Variable
Frame rate                       : 23.976 fps
Resolution                       : 8 bits
Colorimetry                      : 4:2:0
Scan type                        : Progressive
Bits/(Pixel*Frame)               : 0.154
Stream size                      : 265 MiB (66%)
Writing library                  : x264 core 112


Audio
ID                               : 2
Format                           : AC-3
Format/Info                      : Audio Coding 3
Codec ID                         : A_AC3
Duration                         : 45mn 45s
Bit rate mode                    : Constant
Bit rate                         : 384 Kbps
Channel(s)                       : 6 channels
Channel positions                : Front: L C R, Side: L R, LFE
Sampling rate                    : 48.0 KHz
Stream size                      : 126 MiB (31%)
Language                         : English

Text(subtitles)
ID                               : 3
Format                           : UTF-8
Codec ID                         : S_TEXT/UTF8
Codec ID/Info                    : UTF-8 Plain Text
Language                         : Spanish